<svg xmlns="http://www.w3.org/2000/svg" xmlns:xlink="http://www.w3.org/1999/xlink" width="38.261" height="37.659" viewBox="0 0 38.261 37.659">
  <defs>
    <linearGradient id="linear-gradient" x1="0.5" x2="0.5" y2="1" gradientUnits="objectBoundingBox">
      <stop offset="0" stop-color="#f77c44"/>
      <stop offset="1" stop-color="#d63a46"/>
    </linearGradient>
  </defs>
  <g id="star" transform="translate(0)">
    <path id="star-3" d="M8.564,38.152a1.993,1.993,0,0,1-1.191-.4A2.118,2.118,0,0,1,6.582,35.6L9.044,24.461.7,16.942a2.123,2.123,0,0,1-.6-2.219,2.045,2.045,0,0,1,1.749-1.436l11.045-1.03,4.367-10.5a2.013,2.013,0,0,1,3.74,0l4.367,10.5,11.043,1.03a2.043,2.043,0,0,1,1.751,1.436,2.124,2.124,0,0,1-.595,2.219l-8.348,7.517L31.681,35.6a2.116,2.116,0,0,1-.791,2.157,1.985,1.985,0,0,1-2.235.1l-9.524-5.846L9.607,37.855A2,2,0,0,1,8.564,38.152Zm10.567-8.664a2,2,0,0,1,1.043.3l8.988,5.522L26.839,24.795a2.123,2.123,0,0,1,.644-2.035l7.882-7.1-10.428-.973a2.037,2.037,0,0,1-1.69-1.266l-4.116-9.9L15.01,13.423a2.031,2.031,0,0,1-1.685,1.261l-10.43.973,7.882,7.1a2.118,2.118,0,0,1,.644,2.037L9.1,35.3l8.988-5.52A2,2,0,0,1,19.131,29.488ZM12.81,12.46a0,0,0,0,1,0,0Zm12.639,0,0,0S25.451,12.457,25.449,12.455Zm0,0" transform="translate(0 -0.492)" fill="url(#linear-gradient)"/>
  </g>
</svg>
