<svg xmlns="http://www.w3.org/2000/svg" xmlns:xlink="http://www.w3.org/1999/xlink" width="114" height="114" viewBox="0 0 114 114">
  <defs>
    <filter id="Rectangle_112" x="10" y="10" width="104" height="104" filterUnits="userSpaceOnUse">
      <feOffset dx="5" dy="5" input="SourceAlpha"/>
      <feGaussianBlur stdDeviation="4" result="blur"/>
      <feFlood flood-color="#cc4332"/>
      <feComposite operator="in" in2="blur"/>
      <feComposite in="SourceGraphic"/>
    </filter>
    <filter id="Rectangle_113" x="0" y="0" width="104" height="104" filterUnits="userSpaceOnUse">
      <feOffset dx="-5" dy="-5" input="SourceAlpha"/>
      <feGaussianBlur stdDeviation="4" result="blur-2"/>
      <feFlood flood-color="#f4685b"/>
      <feComposite operator="in" in2="blur-2"/>
      <feComposite in="SourceGraphic"/>
    </filter>
    <linearGradient id="linear-gradient" x1="0.5" x2="0.5" y2="1" gradientUnits="objectBoundingBox">
      <stop offset="0" stop-color="#fff"/>
      <stop offset="1" stop-color="#ffd8aa"/>
    </linearGradient>
  </defs>
  <g id="Group_299" data-name="Group 299" transform="translate(-58 -2589)">
    <g id="Group_222" data-name="Group 222" transform="translate(-312 35)">
      <g transform="matrix(1, 0, 0, 1, 370, 2554)" filter="url(#Rectangle_112)">
        <rect id="Rectangle_112-2" data-name="Rectangle 112" width="80" height="80" rx="40" transform="translate(17 17)" fill="#f27447"/>
      </g>
      <g transform="matrix(1, 0, 0, 1, 370, 2554)" filter="url(#Rectangle_113)">
        <g id="Rectangle_113-2" data-name="Rectangle 113" transform="translate(17 17)" fill="#e1534b" stroke="#ff786f" stroke-width="5">
          <rect width="80" height="80" rx="40" stroke="none"/>
          <rect x="2.5" y="2.5" width="75" height="75" rx="37.5" fill="none"/>
        </g>
      </g>
    </g>
    <g id="star" transform="translate(96 2625)">
      <path id="star-3" d="M8.564,38.152a1.993,1.993,0,0,1-1.191-.4A2.118,2.118,0,0,1,6.582,35.6L9.044,24.461.7,16.942a2.123,2.123,0,0,1-.6-2.219,2.045,2.045,0,0,1,1.749-1.436l11.045-1.03,4.367-10.5a2.013,2.013,0,0,1,3.74,0l4.367,10.5,11.043,1.03a2.043,2.043,0,0,1,1.751,1.436,2.124,2.124,0,0,1-.595,2.219l-8.348,7.517L31.681,35.6a2.116,2.116,0,0,1-.791,2.157,1.985,1.985,0,0,1-2.235.1l-9.524-5.846L9.607,37.855A2,2,0,0,1,8.564,38.152Zm10.567-8.664a2,2,0,0,1,1.043.3l8.988,5.522L26.839,24.795a2.123,2.123,0,0,1,.644-2.035l7.882-7.1-10.428-.973a2.037,2.037,0,0,1-1.69-1.266l-4.116-9.9L15.01,13.423a2.031,2.031,0,0,1-1.685,1.261l-10.43.973,7.882,7.1a2.118,2.118,0,0,1,.644,2.037L9.1,35.3l8.988-5.52A2,2,0,0,1,19.131,29.488ZM12.81,12.46a0,0,0,0,1,0,0Zm12.639,0,0,0S25.451,12.457,25.449,12.455Zm0,0" transform="translate(0 -0.492)" fill="url(#linear-gradient)"/>
    </g>
  </g>
</svg>
