<svg xmlns="http://www.w3.org/2000/svg" xmlns:xlink="http://www.w3.org/1999/xlink" width="38.561" height="38.113" viewBox="0 0 38.561 38.113">
  <defs>
    <linearGradient id="linear-gradient" x1="0.5" x2="0.5" y2="1" gradientUnits="objectBoundingBox">
      <stop offset="0" stop-color="#f77b44"/>
      <stop offset="1" stop-color="#d63b46"/>
    </linearGradient>
  </defs>
  <path id="Union_7" data-name="Union 7" d="M16.28,33.777H7.473A3.435,3.435,0,0,1,5.337,27.65a3.431,3.431,0,0,1,0-5.381,3.43,3.43,0,0,1,0-5.38,3.435,3.435,0,0,1,2.136-6.128H9.422a3.426,3.426,0,0,1,0-3.887H3.438A3.437,3.437,0,1,1,3.438,0H21.746A3.436,3.436,0,0,1,24.58,5.381h5.984a3.437,3.437,0,0,1,0,6.875H28.618a3.4,3.4,0,0,1,.332.611A12.7,12.7,0,1,1,16.28,33.777Zm-1.932-8.668A11.209,11.209,0,1,0,25.557,13.9,11.222,11.222,0,0,0,14.348,25.109ZM5.53,30.34a1.945,1.945,0,0,0,1.943,1.943h7.606A12.659,12.659,0,0,1,13.286,28.4H7.473A1.945,1.945,0,0,0,5.53,30.34Zm0-5.381A1.945,1.945,0,0,0,7.473,26.9H12.98a12.74,12.74,0,0,1,.047-3.886H7.473A1.945,1.945,0,0,0,5.53,24.96Zm0-5.381a1.945,1.945,0,0,0,1.943,1.943h5.9a12.662,12.662,0,0,1,1.921-3.886H7.473A1.945,1.945,0,0,0,5.53,19.579Zm0-5.381a1.945,1.945,0,0,0,1.943,1.943h9.095a12.666,12.666,0,0,1,8.99-3.736c.361,0,.719.016,1.072.046a1.935,1.935,0,0,0-.848-.2H7.473A1.945,1.945,0,0,0,5.53,14.2Zm4.782-5.381a1.945,1.945,0,0,0,1.943,1.944H30.564a1.943,1.943,0,0,0,0-3.887H12.256A1.945,1.945,0,0,0,10.313,8.818ZM1.495,3.438A1.945,1.945,0,0,0,3.438,5.381H21.746a1.943,1.943,0,0,0,0-3.886H3.438A1.945,1.945,0,0,0,1.495,3.438Zm23.07,29.912a.634.634,0,1,1,.005-1.268h.037a.634.634,0,0,1,0,1.268Zm-2.573-.81a8.247,8.247,0,0,1-3.713-11.3.634.634,0,1,1,1.119.6A6.98,6.98,0,0,0,22.541,31.4a.634.634,0,1,1-.549,1.142Zm2.929-2.953v-.274a2.521,2.521,0,0,1-2.028-2.4.634.634,0,1,1,1.268,0A1.409,1.409,0,1,0,25.554,25.7a2.576,2.576,0,0,1-2.662-2.474,2.522,2.522,0,0,1,2.028-2.4v-.33a.634.634,0,0,1,1.268,0v.33a2.522,2.522,0,0,1,2.029,2.4.634.634,0,0,1-1.268,0,1.409,1.409,0,1,0-1.394,1.207,2.577,2.577,0,0,1,2.662,2.475,2.521,2.521,0,0,1-2.029,2.4v.274a.634.634,0,1,1-1.268,0Zm7.06-.35a.634.634,0,0,1-.262-.858,6.978,6.978,0,0,0-3.142-9.559.634.634,0,1,1,.549-1.142,8.247,8.247,0,0,1,3.713,11.3.635.635,0,0,1-.561.336A.626.626,0,0,1,31.98,29.237Zm-5.435-11.1h-.037a.634.634,0,0,1,0-1.268h.043a.634.634,0,0,1,0,1.268Z" transform="translate(0.15 0.15)" stroke="#e75c44" stroke-linejoin="round" stroke-width="0.3" fill="url(#linear-gradient)"/>
</svg>
