<svg xmlns="http://www.w3.org/2000/svg" xmlns:xlink="http://www.w3.org/1999/xlink" width="38" height="38" viewBox="0 0 38 38">
  <defs>
    <linearGradient id="linear-gradient" x1="0.5" x2="0.5" y2="1" gradientUnits="objectBoundingBox">
      <stop offset="0" stop-color="#f87d44"/>
      <stop offset="1" stop-color="#d63c46"/>
    </linearGradient>
  </defs>
  <path id="Union_5" data-name="Union 5" d="M15.759,36.722a27.133,27.133,0,0,0,.384-4.2c-1.264.66-2.317,1.17-2.617,1.363a1.113,1.113,0,0,1-1.389-.15l-1.917-1.917c-3.245,2.411-5.028,2.674-5.65,2.674A1.119,1.119,0,0,1,3.4,33.416c-.009-.262.035-2.114,2.687-5.731L4.263,25.863a1.114,1.114,0,0,1-.155-1.381c.176-.28.709-1.4,1.4-2.736a8.673,8.673,0,0,0-1.051-.009,15.48,15.48,0,0,0-3.059.478A1.113,1.113,0,0,1,.326,20.353L3.476,17.2a8.839,8.839,0,0,1,6.36-2.631,45.928,45.928,0,0,1,4.571-5.559C20.533,2.708,28.044-.817,36.854.162a1.113,1.113,0,0,1,.984.983c.966,8.694-2.45,16.146-8.7,22.272a46.014,46.014,0,0,1-5.849,4.808,8.8,8.8,0,0,1-2.5,6.3l-3.149,3.149a1.084,1.084,0,0,1-.776.328A1.113,1.113,0,0,1,15.759,36.722Zm2.516-5.356a10.833,10.833,0,0,1,.055,2.474l.891-.891A6.567,6.567,0,0,0,20.915,29.8C19.983,30.382,19.094,30.905,18.275,31.366Zm-6.408-6.918A28.529,28.529,0,0,0,6.2,31.711a28.791,28.791,0,0,0,7.243-5.689,3.33,3.33,0,0,0,.981-2.554A3.292,3.292,0,0,0,11.867,24.448Zm.1,5.974,1.148,1.148c.621-.321,1.049-.527,2.075-1.075l-1.56-1.56Q12.757,29.756,11.971,30.422Zm3.562-9.179a1.113,1.113,0,0,1,1.113,1.113c0,1.829.055,3.4-1.422,5.021l2,2C26.333,24.139,32.111,18.127,34.5,11.4a12,12,0,0,1-4.858-3.05,11.987,11.987,0,0,1-3.057-4.881c-6.76,2.38-12.778,8.159-17.983,17.285l1.906,1.907a5.891,5.891,0,0,1,4.472-1.424ZM6.422,24.874l1.052,1.051q.665-.79,1.481-1.667L7.489,22.792C6.954,23.8,6.663,24.4,6.422,24.874Zm.214-5.209c.472-.84,1.007-1.75,1.608-2.7a7.028,7.028,0,0,0-3.194,1.816l-.734.735c.2-.01.4-.015.6-.015A8.071,8.071,0,0,1,6.636,19.665ZM28.724,2.841a9.8,9.8,0,0,0,2.5,3.938A9.8,9.8,0,0,0,35.144,9.27a22.223,22.223,0,0,0,.564-6.979q-.89-.066-1.766-.066A22.134,22.134,0,0,0,28.724,2.841Zm-8.965,15.4a5.978,5.978,0,1,1,4.221,1.745A5.977,5.977,0,0,1,19.759,18.239Zm1.689-6.754a3.587,3.587,0,1,0,2.532-1.047A3.587,3.587,0,0,0,21.448,11.485Z" fill="url(#linear-gradient)"/>
</svg>
