<svg xmlns="http://www.w3.org/2000/svg" xmlns:xlink="http://www.w3.org/1999/xlink" width="38.262" height="43.505" viewBox="0 0 38.262 43.505">
  <defs>
    <linearGradient id="linear-gradient" x1="0.603" y1="1" x2="0.773" y2="0.5" gradientUnits="objectBoundingBox">
      <stop offset="0" stop-color="#d53a46"/>
      <stop offset="1" stop-color="#f37444"/>
    </linearGradient>
  </defs>
  <path id="Union_4" data-name="Union 4" d="M17.469,42.377l-6.355-6.345-.907.907a3.853,3.853,0,0,1-5.447,0L1.129,33.314a3.84,3.84,0,0,1,0-5.438l6.662-6.651A26.822,26.822,0,0,0,15.164,7.469l.021-.1A3.849,3.849,0,0,1,21.1,2.5L35.624,17a3.847,3.847,0,0,1-4.877,5.906l-.1.021A26.893,26.893,0,0,0,20.483,27.26l.617.616a3.84,3.84,0,0,1,0,5.438l-.908.907,2.723,2.719a3.848,3.848,0,0,1-5.446,5.438ZM12.93,34.22l6.355,6.344A1.282,1.282,0,0,0,21.1,38.752l-6.354-6.345ZM2.944,29.688a1.279,1.279,0,0,0,0,1.812l3.631,3.625a1.285,1.285,0,0,0,1.816,0l6.354-6.345L9.3,23.344Zm13.617.906,1.816,1.813.908-.907a1.28,1.28,0,0,0,0-1.812l-.848-.847C17.524,29.619,16.947,30.209,16.561,30.594Zm-5.5-9.118,5.556,5.548a29.4,29.4,0,0,1,11.9-6.241L17.31,9.59A29.341,29.341,0,0,1,11.06,21.476ZM17.469,4.31a1.279,1.279,0,0,0,0,1.812l14.524,14.5a1.283,1.283,0,1,0,1.816-1.813L19.285,4.31a1.286,1.286,0,0,0-1.816,0ZM6.59,31.432a1.078,1.078,0,0,1,0-1.525l1.525-1.525A1.078,1.078,0,1,1,9.64,29.907L8.115,31.432a1.079,1.079,0,0,1-1.525,0ZM35.027,12.448a1.079,1.079,0,1,1,0-2.157h2.156a1.079,1.079,0,1,1,0,2.157Zm-2.92-6.294a1.078,1.078,0,0,1,0-1.525l2.156-2.157A1.079,1.079,0,0,1,35.789,4L33.632,6.154a1.079,1.079,0,0,1-1.525,0ZM25.8,3.235V1.079a1.078,1.078,0,1,1,2.157,0V3.235a1.078,1.078,0,1,1-2.157,0Z" fill="url(#linear-gradient)"/>
</svg>
