<svg xmlns="http://www.w3.org/2000/svg" xmlns:xlink="http://www.w3.org/1999/xlink" width="114" height="114" viewBox="0 0 114 114">
  <defs>
    <filter id="Rectangle_112" x="10" y="10" width="104" height="104" filterUnits="userSpaceOnUse">
      <feOffset dx="5" dy="5" input="SourceAlpha"/>
      <feGaussianBlur stdDeviation="4" result="blur"/>
      <feFlood flood-color="#cc4332"/>
      <feComposite operator="in" in2="blur"/>
      <feComposite in="SourceGraphic"/>
    </filter>
    <filter id="Rectangle_113" x="0" y="0" width="104" height="104" filterUnits="userSpaceOnUse">
      <feOffset dx="-5" dy="-5" input="SourceAlpha"/>
      <feGaussianBlur stdDeviation="4" result="blur-2"/>
      <feFlood flood-color="#f4685b"/>
      <feComposite operator="in" in2="blur-2"/>
      <feComposite in="SourceGraphic"/>
    </filter>
    <linearGradient id="linear-gradient" x1="0.928" y1="-0.11" x2="0.5" y2="1" gradientUnits="objectBoundingBox">
      <stop offset="0" stop-color="#fff"/>
      <stop offset="1" stop-color="#ffddb6"/>
    </linearGradient>
  </defs>
  <g id="Group_300" data-name="Group 300" transform="translate(-58 -2686)">
    <g id="Group_223" data-name="Group 223" transform="translate(-312 132)">
      <g transform="matrix(1, 0, 0, 1, 370, 2554)" filter="url(#Rectangle_112)">
        <rect id="Rectangle_112-2" data-name="Rectangle 112" width="80" height="80" rx="40" transform="translate(17 17)" fill="#f27447"/>
      </g>
      <g transform="matrix(1, 0, 0, 1, 370, 2554)" filter="url(#Rectangle_113)">
        <g id="Rectangle_113-2" data-name="Rectangle 113" transform="translate(17 17)" fill="#e75e4a" stroke="#fc7864" stroke-width="5">
          <rect width="80" height="80" rx="40" stroke="none"/>
          <rect x="2.5" y="2.5" width="75" height="75" rx="37.5" fill="none"/>
        </g>
      </g>
    </g>
    <path id="Union_26" data-name="Union 26" d="M16.173,37.688a27.847,27.847,0,0,0,.394-4.31c-1.3.678-2.378,1.2-2.686,1.4a1.143,1.143,0,0,1-1.426-.154l-1.967-1.967C7.157,35.13,5.327,35.4,4.689,35.4a1.148,1.148,0,0,1-1.2-1.105c-.009-.269.036-2.17,2.757-5.882l-1.87-1.87a1.143,1.143,0,0,1-.159-1.417c.181-.287.728-1.437,1.441-2.808a8.9,8.9,0,0,0-1.079-.009,15.887,15.887,0,0,0-3.14.491,1.143,1.143,0,0,1-1.1-1.912l3.232-3.232a9.072,9.072,0,0,1,6.527-2.7,47.136,47.136,0,0,1,4.692-5.7c6.288-6.472,14-10.089,23.038-9.085a1.142,1.142,0,0,1,1.01,1.009c.991,8.922-2.515,16.571-8.926,22.858a47.225,47.225,0,0,1-6,4.934,9.026,9.026,0,0,1-2.562,6.464l-3.232,3.232a1.113,1.113,0,0,1-.8.336A1.142,1.142,0,0,1,16.173,37.688Zm2.583-5.5a11.118,11.118,0,0,1,.056,2.539l.915-.915a6.74,6.74,0,0,0,1.739-3.234C20.509,31.182,19.6,31.719,18.756,32.191Zm-6.577-7.1a29.279,29.279,0,0,0-5.817,7.454c1.454-.707,3.886-2.291,7.433-5.838A3.418,3.418,0,0,0,14.8,24.085,3.379,3.379,0,0,0,12.179,25.091Zm.107,6.132L13.464,32.4c.637-.329,1.076-.541,2.129-1.1l-1.6-1.6Q13.093,30.539,12.286,31.222ZM15.942,21.8a1.142,1.142,0,0,1,1.143,1.143c0,1.877.057,3.485-1.459,5.153l2.049,2.048C27.026,24.774,32.956,18.6,35.412,11.7a12.318,12.318,0,0,1-4.986-3.13,12.3,12.3,0,0,1-3.138-5.009C20.35,6.007,14.174,11.938,8.832,21.3l1.956,1.957a6.046,6.046,0,0,1,4.59-1.461ZM6.591,25.528l1.08,1.079q.682-.811,1.52-1.711l-1.5-1.5C7.137,24.429,6.838,25.04,6.591,25.528Zm.219-5.346c.484-.862,1.033-1.8,1.65-2.774a7.213,7.213,0,0,0-3.278,1.863l-.753.754c.2-.01.408-.016.614-.016A8.284,8.284,0,0,1,6.81,20.182ZM29.48,2.916a10.054,10.054,0,0,0,2.562,4.042,10.062,10.062,0,0,0,4.027,2.557,22.807,22.807,0,0,0,.579-7.163q-.913-.068-1.812-.068A22.717,22.717,0,0,0,29.48,2.916Zm-9.2,15.8a6.135,6.135,0,1,1,4.333,1.791A6.134,6.134,0,0,1,20.279,18.719Zm1.733-6.932a3.681,3.681,0,1,0,2.6-1.075A3.681,3.681,0,0,0,22.012,11.787Z" transform="translate(94 2725)" fill="url(#linear-gradient)"/>
  </g>
</svg>
