<svg xmlns="http://www.w3.org/2000/svg" xmlns:xlink="http://www.w3.org/1999/xlink" width="114" height="114" viewBox="0 0 114 114">
  <defs>
    <filter id="Rectangle_112" x="10" y="10" width="104" height="104" filterUnits="userSpaceOnUse">
      <feOffset dx="5" dy="5" input="SourceAlpha"/>
      <feGaussianBlur stdDeviation="4" result="blur"/>
      <feFlood flood-color="#cc4332"/>
      <feComposite operator="in" in2="blur"/>
      <feComposite in="SourceGraphic"/>
    </filter>
    <filter id="Rectangle_113" x="0" y="0" width="104" height="104" filterUnits="userSpaceOnUse">
      <feOffset dx="-5" dy="-5" input="SourceAlpha"/>
      <feGaussianBlur stdDeviation="4" result="blur-2"/>
      <feFlood flood-color="#f87b5c"/>
      <feComposite operator="in" in2="blur-2"/>
      <feComposite in="SourceGraphic"/>
    </filter>
    <linearGradient id="linear-gradient" x1="0.5" x2="0.5" y2="1" gradientUnits="objectBoundingBox">
      <stop offset="0" stop-color="#fff"/>
      <stop offset="1" stop-color="#ffdfbb"/>
    </linearGradient>
  </defs>
  <g id="Group_301" data-name="Group 301" transform="translate(-58 -2788)">
    <g id="Group_226" data-name="Group 226" transform="translate(-311.954 234.046)" opacity="0.8">
      <g transform="matrix(1, 0, 0, 1, 369.95, 2553.95)" filter="url(#Rectangle_112)">
        <rect id="Rectangle_112-2" data-name="Rectangle 112" width="80" height="80" rx="40" transform="translate(17 17)" fill="#f27447"/>
      </g>
      <g transform="matrix(1, 0, 0, 1, 369.95, 2553.95)" filter="url(#Rectangle_113)">
        <g id="Rectangle_113-2" data-name="Rectangle 113" transform="translate(17 17)" fill="#eb6649" stroke="#ff865d" stroke-width="5">
          <rect width="80" height="80" rx="40" stroke="none"/>
          <rect x="2.5" y="2.5" width="75" height="75" rx="37.5" fill="none"/>
        </g>
      </g>
    </g>
    <path id="Union_27" data-name="Union 27" d="M17.469,41.4l-6.355-6.2-.907.886a3.918,3.918,0,0,1-5.447,0L1.129,32.548a3.691,3.691,0,0,1,0-5.313l6.662-6.5A26.026,26.026,0,0,0,15.164,7.3l.021-.1a3.687,3.687,0,0,1,.469-4.759,3.925,3.925,0,0,1,5.446,0L35.624,16.609a3.7,3.7,0,0,1,0,5.312,3.928,3.928,0,0,1-4.877.458l-.1.02a27.228,27.228,0,0,0-10.162,4.234l.617.6a3.691,3.691,0,0,1,0,5.313l-.908.886,2.723,2.656a3.7,3.7,0,0,1,0,5.313,3.916,3.916,0,0,1-5.446,0ZM12.93,33.434l6.355,6.2a1.306,1.306,0,0,0,1.815,0,1.231,1.231,0,0,0,0-1.771l-6.354-6.2ZM2.944,29.006a1.229,1.229,0,0,0,0,1.771l3.631,3.542a1.307,1.307,0,0,0,1.816,0l6.354-6.2L9.3,22.807Zm13.617.885,1.816,1.771.908-.886a1.231,1.231,0,0,0,0-1.771l-.848-.828C17.524,28.938,16.947,29.515,16.561,29.891Zm-5.5-8.908,5.556,5.42a29.642,29.642,0,0,1,11.9-6.1L17.31,9.37A28.452,28.452,0,0,1,11.06,20.983ZM17.469,4.211a1.229,1.229,0,0,0,0,1.771L31.993,20.151a1.308,1.308,0,0,0,1.816,0,1.233,1.233,0,0,0,0-1.771L19.285,4.211a1.307,1.307,0,0,0-1.816,0ZM6.59,30.709a1.036,1.036,0,0,1,0-1.49l1.525-1.49a1.1,1.1,0,0,1,1.525,0,1.037,1.037,0,0,1,0,1.49l-1.525,1.49a1.1,1.1,0,0,1-1.525,0ZM35.027,12.162a1.054,1.054,0,1,1,0-2.108h2.156a1.054,1.054,0,1,1,0,2.108Zm-2.92-6.149a1.036,1.036,0,0,1,0-1.49l2.156-2.108a1.1,1.1,0,0,1,1.526,0,1.039,1.039,0,0,1,0,1.49L33.632,6.013a1.1,1.1,0,0,1-1.525,0ZM25.8,3.161V1.054a1.079,1.079,0,0,1,2.157,0V3.161a1.079,1.079,0,0,1-2.157,0Z" transform="translate(95.799 2824.77)" fill="url(#linear-gradient)"/>
  </g>
</svg>
